<svg width="56" height="56" viewBox="0 0 56 56" fill="none" xmlns="http://www.w3.org/2000/svg">
<path d="M26.1139 20.5167C25.8223 22.765 24.9098 24.4865 23.3765 25.6718C21.8337 26.857 19.7359 27.4497 17.0643 27.4497C15.5216 27.4497 14.1576 27.2427 12.9629 26.8288C11.7682 26.4149 10.7804 25.8129 9.98085 25.0133C9.18126 24.2137 8.57921 23.2353 8.1653 22.0783C7.75139 20.9212 7.54443 19.6042 7.54443 18.1085C7.54443 16.6222 7.75139 15.2958 8.1653 14.1387C8.57921 12.9817 9.18126 12.0033 9.98085 11.2038C10.771 10.4042 11.7682 9.7927 12.9629 9.3882C14.1576 8.97429 15.5216 8.76733 17.0643 8.76733C19.7359 8.76733 21.8431 9.35998 23.3765 10.5453C24.9192 11.7305 25.8317 13.4426 26.1139 15.6721H21.3163C21.147 14.6091 20.6955 13.8095 19.9711 13.2921C19.2468 12.7747 18.2684 12.5207 17.0549 12.5207C15.4651 12.5207 14.261 12.9817 13.452 13.9036C12.643 14.8255 12.2385 16.2271 12.2385 18.0991C12.2385 19.9617 12.643 21.3539 13.452 22.2852C14.261 23.2165 15.4651 23.6775 17.0549 23.6775C18.2684 23.6775 19.2374 23.4235 19.9617 22.9061C20.6766 22.3887 21.1282 21.5985 21.3163 20.5261L26.1139 20.5167Z" fill="#2E2E2E"/>
<path d="M44.1095 27.2144V22.4639C44.1095 21.8054 44.1377 21.2127 44.2036 20.6954C44.2694 20.178 44.3447 19.7076 44.4293 19.2749C44.514 18.8422 44.6175 18.4471 44.721 18.0708C44.8244 17.6945 44.9185 17.3182 45.0032 16.9325L44.0813 16.688C43.9025 17.5158 43.5639 18.4753 43.0465 19.5759C42.5385 20.6765 41.9929 21.8995 41.4097 23.2635L40.2244 26.0009H36.1982L35.0129 23.2635C34.4297 21.9089 33.8841 20.6765 33.3761 19.5759C32.8681 18.4753 32.5201 17.5158 32.3413 16.688L31.4194 16.9325C31.5041 17.3182 31.5888 17.7039 31.7016 18.0708C31.8051 18.4471 31.8992 18.8422 31.9933 19.2749C32.0779 19.7076 32.1626 20.178 32.219 20.6954C32.2849 21.2127 32.3131 21.8054 32.3131 22.4639V27.2144H27.9482V9.02124H32.5577L36.678 16.6127C37.1671 17.5158 37.4587 18.3154 37.5622 19.0115C37.6657 19.7076 37.7221 20.3003 37.7221 20.78V21.3633H38.6911V20.7894C38.6911 20.3003 38.7475 19.717 38.851 19.0209C38.9545 18.3248 39.2555 17.5252 39.7352 16.6221L43.8555 9.03065H48.465V27.2238H44.1095V27.2144Z" fill="#2E2E2E"/>
<path d="M22.9907 27.9106H27.9671L20.9776 47.148H15.0136L8.02417 27.9106H13.0005L16.5093 37.995C16.6034 38.2207 16.6786 38.4653 16.7727 38.6911C16.9044 39.0015 16.9985 39.3025 17.0267 39.5377C17.0549 39.7729 17.0549 39.8764 17.0643 40.1021C17.0737 40.3279 17.0737 40.5255 17.0737 40.7136V41.485H18.9363V40.7136C18.9363 40.5255 18.9363 40.3185 18.9457 40.1021C18.9551 39.8764 18.9645 39.7635 18.9834 39.5189C19.0116 39.2837 19.1245 38.9263 19.2279 38.6723C19.3408 38.3807 19.4161 38.2207 19.4819 37.995L22.9907 27.9106Z" fill="#2E2E2E"/>
<path d="M30.4129 31.3441C30.7421 30.6574 31.2501 30.0647 31.918 29.5474C32.5953 29.0394 33.4419 28.6349 34.4767 28.3433C35.5115 28.0516 38.2395 27.9011 39.6412 27.9011C41.0428 27.9011 42.2469 28.0516 43.2629 28.3433C44.2788 28.6349 45.1255 29.0394 45.7934 29.5474C46.4707 30.0553 46.9692 30.6574 47.2985 31.3441C47.6277 32.0308 47.8159 32.7646 47.8535 33.5547H42.8678C42.8678 33.3384 42.8113 33.122 42.7079 32.9151C42.6044 32.7081 42.4162 32.52 42.1528 32.3506C41.8895 32.1813 41.5602 32.0496 41.1463 31.9461C40.7324 31.8427 38.7193 31.7956 38.1266 31.7956C36.9225 31.7956 36.0853 31.9461 35.6056 32.2566C35.1258 32.567 34.8906 32.9997 34.8906 33.5453C34.8906 33.9498 35.0694 34.2603 35.4174 34.486C35.7655 34.7118 36.2264 34.8905 36.7908 35.0128C37.3553 35.1351 38.0044 35.2386 38.7287 35.3233C39.453 35.4079 41.7107 35.5114 42.4633 35.6525C43.2158 35.7842 43.959 35.9629 44.6833 36.1887C45.4077 36.4145 46.0568 36.7437 46.6212 37.167C47.1856 37.5904 47.6466 38.1454 47.9946 38.8133C48.3427 39.4812 48.5214 40.3184 48.5214 41.3249C48.5214 42.1904 48.3239 42.99 47.9194 43.7237C47.5149 44.4481 46.9316 45.0783 46.1791 45.5957C45.4265 46.1131 44.4952 46.5176 43.3946 46.7998C42.294 47.082 39.5283 47.2231 38.1266 47.2231C36.725 47.2231 35.4833 47.0726 34.3921 46.7716C33.3008 46.4706 32.3884 46.0567 31.6264 45.5205C30.8738 44.9843 30.2906 44.3352 29.8861 43.5732C29.4816 42.8113 29.2652 41.9834 29.2276 41.0804H34.2133C34.2133 41.419 34.3074 41.72 34.4861 41.9928C34.6649 42.2656 34.9283 42.5102 35.2669 42.7078C35.6056 42.9053 36.0195 43.0652 36.5086 43.1687C36.9978 43.2816 37.534 43.3286 38.1266 43.3286C38.7193 43.3286 40.77 43.291 41.2498 43.2252C41.7389 43.1593 42.1434 43.0464 42.4915 42.8865C42.8302 42.7266 43.0936 42.5196 43.2723 42.2562C43.451 41.9928 43.5451 41.6824 43.5451 41.3155C43.5451 40.8452 43.3664 40.4783 43.0183 40.2149C42.6702 39.9515 42.2093 39.7352 41.6449 39.5752C41.0804 39.4153 38.9262 39.2836 38.1925 39.1895C37.4682 39.0861 36.725 38.9732 35.9724 38.8415C35.2199 38.7098 34.4767 38.5311 33.7524 38.3147C33.028 38.0983 32.379 37.7879 31.8145 37.4022C31.2501 37.0071 30.7892 36.4991 30.4411 35.8877C30.093 35.2668 29.9143 34.4954 29.9143 33.5547C29.9143 32.7646 30.0742 32.0308 30.4129 31.3441Z" fill="#2E2E2E"/>
</svg>
