<?xml version="1.0" encoding="UTF-8"?>
<svg id="Lager_1" data-name="Lager 1" xmlns="http://www.w3.org/2000/svg" viewBox="0 0 40.98 38.46">
  <defs>
    <style>
      .cls-1 {
        fill: #fff;
      }
    </style>
  </defs>
  <path class="cls-1" d="M18.57,11.75c-.29,2.25-1.2,3.97-2.74,5.16-1.54,1.19-3.64,1.78-6.31,1.78-1.54,0-2.91-.21-4.1-.62s-2.18-1.02-2.98-1.82c-.8-.8-1.4-1.78-1.82-2.93-.41-1.16-.62-2.47-.62-3.97s.21-2.81.62-3.97c.41-1.16,1.02-2.14,1.82-2.93.79-.8,1.79-1.41,2.98-1.82,1.19-.41,2.56-.62,4.1-.62,2.67,0,4.78.59,6.31,1.78,1.54,1.19,2.46,2.9,2.74,5.13h-4.8c-.17-1.06-.62-1.86-1.35-2.38-.72-.52-1.7-.77-2.92-.77-1.59,0-2.79.46-3.6,1.38s-1.21,2.32-1.21,4.2.4,3.25,1.21,4.19,2.01,1.39,3.6,1.39c1.21,0,2.18-.25,2.91-.77.71-.52,1.17-1.31,1.35-2.38h4.8Z"/>
  <path class="cls-1" d="M36.57,18.45v-4.75c0-.66.03-1.25.09-1.77.07-.52.14-.99.23-1.42.08-.43.19-.83.29-1.2.1-.38.2-.75.28-1.14l-.92-.24c-.18.83-.52,1.79-1.03,2.89-.51,1.1-1.05,2.32-1.64,3.69l-1.19,2.74h-4.03l-1.19-2.74c-.58-1.35-1.13-2.59-1.64-3.69-.51-1.1-.86-2.06-1.03-2.89l-.92.24c.08.39.17.77.28,1.14.1.38.2.77.29,1.2.08.43.17.9.23,1.42.07.52.09,1.11.09,1.77v4.75h-4.36V.25h4.61l4.12,7.59c.49.9.78,1.7.88,2.4s.16,1.29.16,1.77v.58h.97v-.57c0-.49.06-1.07.16-1.77.1-.7.4-1.5.88-2.4L36.31.26h4.61v18.19h-4.36Z"/>
  <path class="cls-1" d="M15.45,19.14h4.98l-6.99,19.24h-5.96L.48,19.14h4.98l3.51,10.08c.09.23.17.47.26.7.13.31.23.61.25.85.03.24.03.34.04.56,0,.23,0,.42,0,.61v.77h1.86v-.77c0-.19,0-.4,0-.61,0-.23.02-.34.04-.58.03-.24.14-.59.24-.85.11-.29.19-.45.25-.68l3.51-10.08Z"/>
  <path class="cls-1" d="M22.87,22.58c.33-.69.84-1.28,1.51-1.8.68-.51,1.52-.91,2.56-1.2,1.03-.29,3.76-.44,5.16-.44s2.61.15,3.62.44c1.02.29,1.86.7,2.53,1.2.68.51,1.18,1.11,1.51,1.8.33.69.52,1.42.56,2.21h-4.99c0-.22-.06-.43-.16-.64-.1-.21-.29-.4-.56-.56-.26-.17-.59-.3-1.01-.4-.41-.1-2.43-.15-3.02-.15-1.2,0-2.04.15-2.52.46-.48.31-.72.74-.72,1.29,0,.4.18.72.53.94.35.23.81.4,1.37.53.56.12,1.21.23,1.94.31.72.08,2.98.19,3.73.33.75.13,1.5.31,2.22.54.72.23,1.37.55,1.94.98.56.42,1.03.98,1.37,1.65.35.67.53,1.51.53,2.51,0,.87-.2,1.67-.6,2.4-.4.72-.99,1.35-1.74,1.87-.75.52-1.68.92-2.78,1.2s-3.87.42-5.27.42-2.64-.15-3.73-.45c-1.09-.3-2-.71-2.77-1.25-.75-.54-1.34-1.19-1.74-1.95-.4-.76-.62-1.59-.66-2.49h4.99c0,.34.09.64.27.91.18.27.44.52.78.72.34.2.75.36,1.24.46.49.11,1.03.16,1.62.16s2.64-.04,3.12-.1c.49-.07.89-.18,1.24-.34.34-.16.6-.37.78-.63.18-.26.27-.57.27-.94,0-.47-.18-.84-.53-1.1-.35-.26-.81-.48-1.37-.64-.56-.16-2.72-.29-3.45-.39-.72-.1-1.47-.22-2.22-.35-.75-.13-1.5-.31-2.22-.53-.72-.22-1.37-.53-1.94-.91-.56-.4-1.03-.9-1.37-1.51-.35-.62-.53-1.39-.53-2.33,0-.79.16-1.52.5-2.21Z"/>
</svg>